# This file uses centimeters as units for non-parametric coordinates.

mtllib Cajon.mtl
g default
v -0.545123 0.006400 0.855614
v 0.545123 0.006400 0.855614
v -0.545123 0.294987 0.855614
v 0.545123 0.294987 0.855614
v -0.545123 0.294987 0.007549
v 0.545123 0.294987 0.007549
v -0.545123 0.006400 0.007549
v 0.545123 0.006400 0.007549
v 0.172479 0.149747 0.855170
v 0.147088 0.149747 0.855170
v 0.147088 0.176761 0.855170
v 0.172479 0.176761 0.855170
v 0.172479 0.149747 0.910678
v 0.147088 0.149747 0.887580
v 0.147088 0.176761 0.887580
v 0.172479 0.176761 0.910678
v -0.172141 0.149747 0.910678
v -0.146750 0.149747 0.887580
v -0.172141 0.149747 0.855170
v -0.172141 0.176761 0.855170
v -0.146750 0.176761 0.855170
v -0.146750 0.149747 0.855170
v -0.146750 0.176761 0.887580
v -0.172141 0.176761 0.910678
vt 0.375000 0.000000
vt 0.625000 0.000000
vt 0.375000 0.250000
vt 0.625000 0.250000
vt 0.375000 0.500000
vt 0.625000 0.500000
vt 0.375000 0.750000
vt 0.625000 0.750000
vt 0.375000 1.000000
vt 0.625000 1.000000
vt 0.875000 0.000000
vt 0.875000 0.250000
vt 0.125000 0.000000
vt 0.125000 0.250000
vt 0.066800 0.859900
vt 0.072400 0.859900
vt 0.072400 0.865900
vt 0.066700 0.865900
vt 0.066800 0.847600
vt 0.072400 0.852700
vt 0.079600 0.859900
vt 0.079600 0.865900
vt 0.072400 0.836400
vt 0.066800 0.841600
vt 0.066800 0.829200
vt 0.072400 0.829200
vt 0.054400 0.847600
vt 0.054400 0.841600
vt 0.143400 0.847600
vt 0.137700 0.852700
vt 0.143400 0.859900
vt 0.143400 0.865900
vt 0.137700 0.865900
vt 0.137700 0.859900
vt 0.137700 0.858700
vt 0.072400 0.858700
vt 0.130500 0.859900
vt 0.130500 0.865900
vt 0.137700 0.836400
vt 0.137700 0.829200
vt 0.143400 0.829200
vt 0.143400 0.841600
vt 0.155700 0.841600
vt 0.155700 0.847600
vn 0.000000 0.000000 1.000000
vn 0.000000 0.000000 1.000000
vn 0.000000 0.000000 1.000000
vn 0.000000 0.000000 1.000000
vn 0.000000 0.000000 -1.000000
vn 0.000000 0.000000 -1.000000
vn 0.000000 0.000000 -1.000000
vn 0.000000 0.000000 -1.000000
vn 0.000000 -1.000000 0.000000
vn 0.000000 -1.000000 0.000000
vn 0.000000 -1.000000 0.000000
vn 0.000000 -1.000000 0.000000
vn 1.000000 0.000000 0.000000
vn 1.000000 0.000000 0.000000
vn 1.000000 0.000000 0.000000
vn 1.000000 0.000000 0.000000
vn -1.000000 0.000000 0.000000
vn -1.000000 0.000000 0.000000
vn -1.000000 0.000000 0.000000
vn -1.000000 0.000000 0.000000
vn 0.000000 0.000000 -1.000000
vn 0.000000 0.000000 -1.000000
vn 0.000000 0.000000 -1.000000
vn 0.000000 0.000000 -1.000000
vn 0.000000 -1.000000 0.000000
vn 0.000000 -1.000000 0.000000
vn 0.000000 -1.000000 0.000000
vn 0.000000 -1.000000 0.000000
vn -1.000000 0.000000 0.000000
vn -1.000000 0.000000 0.000000
vn -1.000000 0.000000 0.000000
vn -1.000000 0.000000 0.000000
vn 0.000000 1.000000 0.000000
vn 0.000000 1.000000 0.000000
vn 0.000000 1.000000 0.000000
vn 0.000000 1.000000 0.000000
vn 1.000000 0.000000 0.000000
vn 1.000000 0.000000 0.000000
vn 1.000000 0.000000 0.000000
vn 1.000000 0.000000 0.000000
vn 0.000000 -1.000000 0.000002
vn 0.000000 -1.000000 0.000002
vn 0.000000 -1.000000 0.000002
vn 0.000000 -1.000000 0.000002
vn 0.000000 0.000000 -1.000000
vn 0.000000 0.000000 -1.000000
vn 0.000000 0.000000 -1.000000
vn 0.000000 0.000000 -1.000000
vn 0.000000 0.000000 -1.000000
vn 0.000000 0.000000 -1.000000
vn 0.000000 0.000000 -1.000000
vn 0.000000 0.000000 -1.000000
vn 0.000000 -1.000000 0.000000
vn 0.000000 -1.000000 0.000000
vn 0.000000 -1.000000 0.000000
vn 0.000000 -1.000000 0.000000
vn 1.000000 0.000000 0.000000
vn 1.000000 0.000000 0.000000
vn 1.000000 0.000000 0.000000
vn 1.000000 0.000000 0.000000
vn 0.000000 1.000000 0.000000
vn 0.000000 1.000000 0.000000
vn 0.000000 1.000000 0.000000
vn 0.000000 1.000000 0.000000
vn -1.000000 0.000000 0.000000
vn -1.000000 0.000000 0.000000
vn -1.000000 0.000000 0.000000
vn -1.000000 0.000000 0.000000
vn 0.000000 1.000000 0.000000
vn 0.000000 1.000000 0.000000
vn 0.000000 1.000000 0.000000
vn 0.000000 1.000000 0.000000
vn 0.000000 0.000000 1.000000
vn 0.000000 0.000000 1.000000
vn 0.000000 0.000000 1.000000
vn 0.000000 0.000000 1.000000
s off
g pCube2
usemtl lambert3SG
f 1/1/1 2/2/2 4/4/3 3/3/4
f 5/5/5 6/6/6 8/8/7 7/7/8
f 7/7/9 8/8/10 2/10/11 1/9/12
f 2/2/13 8/11/14 6/12/15 4/4/16
f 7/13/17 1/1/18 3/3/19 5/14/20
usemtl lambert2SG
f 9/15/21 10/16/22 11/17/23 12/18/24
f 13/19/25 14/20/26 10/16/27 9/15/28
f 14/21/29 15/22/30 11/17/31 10/16/32
f 15/23/33 16/24/34 12/25/35 11/26/36
f 16/24/37 13/19/38 9/27/39 12/28/40
f 14/20/41 13/19/42 17/29/43 18/30/44
f 19/31/45 20/32/46 21/33/47 22/34/48
f 18/30/49 23/35/50 15/36/51 14/20/52
f 17/29/53 19/31/54 22/34/55 18/30/56
f 18/37/57 22/34/58 21/33/59 23/38/60
f 23/39/61 21/40/62 20/41/63 24/42/64
f 24/42/65 20/43/66 19/44/67 17/29/68
f 16/24/69 15/23/70 23/39/71 24/42/72
f 13/19/73 16/24/74 24/42/75 17/29/76
