# This file uses centimeters as units for non-parametric coordinates.

mtllib Cuadro123.mtl
g default
v 0.400594 -0.715224 0.062596
v 0.852312 -0.715224 0.062596
v 0.400594 0.012396 0.062596
v 0.852312 0.012396 0.062596
v 0.400594 0.012396 -0.014758
v 0.852312 0.012396 -0.014758
v 0.400594 -0.715224 -0.014758
v 0.852312 -0.715224 -0.014758
vt 0.375000 0.000000
vt 0.625000 0.000000
vt 0.375000 0.250000
vt 0.625000 0.250000
vt 0.375000 0.500000
vt 0.625000 0.500000
vt 0.375000 0.750000
vt 0.625000 0.750000
vt 0.375000 1.000000
vt 0.625000 1.000000
vt 0.875000 0.000000
vt 0.875000 0.250000
vt 0.125000 0.000000
vt 0.125000 0.250000
vt 0.000000 0.000000
vt 1.000000 0.000000
vt 1.000000 1.000000
vt 0.000000 1.000000
vn 0.000000 0.000000 1.000000
vn 0.000000 0.000000 1.000000
vn 0.000000 0.000000 1.000000
vn 0.000000 0.000000 1.000000
vn 0.000000 1.000000 0.000000
vn 0.000000 1.000000 0.000000
vn 0.000000 1.000000 0.000000
vn 0.000000 1.000000 0.000000
vn 0.000000 0.000000 -1.000000
vn 0.000000 0.000000 -1.000000
vn 0.000000 0.000000 -1.000000
vn 0.000000 0.000000 -1.000000
vn 0.000000 -1.000000 0.000000
vn 0.000000 -1.000000 0.000000
vn 0.000000 -1.000000 0.000000
vn 0.000000 -1.000000 0.000000
vn 1.000000 0.000000 0.000000
vn 1.000000 0.000000 0.000000
vn 1.000000 0.000000 0.000000
vn 1.000000 0.000000 0.000000
vn -1.000000 0.000000 0.000000
vn -1.000000 0.000000 0.000000
vn -1.000000 0.000000 0.000000
vn -1.000000 0.000000 0.000000
s off
g pCube1
usemtl lambert27SG
f 1/15/1 2/16/2 4/17/3 3/18/4
usemtl lambert25SG
f 3/3/5 4/4/6 6/6/7 5/5/8
f 5/5/9 6/6/10 8/8/11 7/7/12
f 7/7/13 8/8/14 2/10/15 1/9/16
f 2/2/17 8/11/18 6/12/19 4/4/20
f 7/13/21 1/1/22 3/3/23 5/14/24
g default
v -1.292504 0.706654 0.036086
v -1.292504 -0.692355 0.036086
v -1.292504 -0.692355 0.076086
v -1.292504 0.706654 0.076086
v -0.507095 0.706654 0.036086
v -0.507095 -0.692355 0.036086
v -0.507095 0.706654 0.076086
v -1.260301 0.641845 0.076086
v -1.260301 -0.658989 0.076086
v -0.507095 -0.692355 0.076086
v -0.536254 0.641845 0.076086
v -1.260301 0.641845 0.056086
v -0.536254 0.641845 0.056086
v -1.260301 -0.658989 0.056086
v -0.536254 -0.658989 0.076086
v -0.536254 -0.658989 0.056086
vt -58.222099 -0.000000
vt -13.340200 -0.000000
vt -13.340200 1.574800
vt -58.222099 1.574800
vt -27.756300 13.340200
vt -27.756300 58.222099
vt -52.953201 58.222099
vt -52.953201 13.340200
vt -52.953201 -0.000000
vt -27.756300 -0.000000
vt -27.756300 1.574800
vt -52.953201 1.574800
vt 27.756300 58.222099
vt 28.789400 56.142899
vt 52.953201 58.222099
vt 28.789400 14.410600
vt 27.756300 13.340200
vt 52.953201 13.340200
vt 27.756300 -0.000000
vt 52.953201 -0.000000
vt 52.953201 1.574800
vt 27.756300 1.574800
vt 13.340200 -0.000000
vt 58.222099 -0.000000
vt 58.222099 1.574800
vt 13.340200 1.574800
vt 52.017799 56.142899
vt 52.017799 1.574800
vt 28.789400 1.574800
vt 28.789400 0.787402
vt 52.017799 0.787402
vt 56.142899 1.574800
vt 14.410600 1.574800
vt 14.410600 0.787402
vt 56.142899 0.787402
vt -28.789400 1.574800
vt -52.017799 1.574800
vt -52.017799 0.787402
vt -28.789400 0.787402
vt 52.017799 14.410600
vt -14.410600 1.574800
vt -56.142899 1.574800
vt -56.142899 0.787402
vt -14.410600 0.787402
vt 0.000000 1.000000
vt 0.000000 0.000000
vt 1.000000 0.000000
vt 1.000000 1.000000
vn -1.000000 0.000000 0.000000
vn -1.000000 0.000000 0.000000
vn -1.000000 0.000000 0.000000
vn -1.000000 0.000000 0.000000
vn 0.000000 -0.000000 -1.000000
vn 0.000000 -0.000000 -1.000000
vn 0.000000 -0.000000 -1.000000
vn 0.000000 -0.000000 -1.000000
vn 0.000000 1.000000 0.000000
vn 0.000000 1.000000 0.000000
vn 0.000000 1.000000 0.000000
vn 0.000000 1.000000 0.000000
vn 0.000000 0.000000 1.000000
vn 0.000000 0.000000 1.000000
vn 0.000000 0.000000 1.000000
vn 0.000000 0.000000 1.000000
vn 0.000000 0.000000 1.000000
vn 0.000000 0.000000 1.000000
vn 0.000000 0.000000 1.000000
vn 0.000000 0.000000 1.000000
vn 0.000000 0.000000 1.000000
vn 0.000000 0.000000 1.000000
vn 0.000000 0.000000 1.000000
vn 0.000000 0.000000 1.000000
vn 0.000000 -1.000000 0.000000
vn 0.000000 -1.000000 0.000000
vn 0.000000 -1.000000 0.000000
vn 0.000000 -1.000000 0.000000
vn 1.000000 0.000000 0.000000
vn 1.000000 0.000000 0.000000
vn 1.000000 0.000000 0.000000
vn 1.000000 0.000000 0.000000
vn 0.000000 0.000000 1.000000
vn 0.000000 0.000000 1.000000
vn 0.000000 0.000000 1.000000
vn 0.000000 0.000000 1.000000
vn 0.000000 0.000000 1.000000
vn 0.000000 0.000000 1.000000
vn 0.000000 -1.000000 0.000000
vn 0.000000 -1.000000 0.000000
vn 0.000000 -1.000000 0.000000
vn 0.000000 -1.000000 0.000000
vn 1.000000 0.000000 0.000000
vn 1.000000 0.000000 0.000000
vn 1.000000 0.000000 0.000000
vn 1.000000 0.000000 0.000000
vn 0.000000 1.000000 0.000000
vn 0.000000 1.000000 0.000000
vn 0.000000 1.000000 0.000000
vn 0.000000 1.000000 0.000000
vn 0.000000 0.000000 1.000000
vn 0.000000 0.000000 1.000000
vn 0.000000 0.000000 1.000000
vn 0.000000 0.000000 1.000000
vn 0.000000 0.000000 1.000000
vn 0.000000 0.000000 1.000000
vn -1.000000 0.000000 0.000000
vn -1.000000 0.000000 0.000000
vn -1.000000 0.000000 0.000000
vn -1.000000 0.000000 0.000000
vn 0.000000 0.000000 1.000000
vn 0.000000 0.000000 1.000000
vn 0.000000 0.000000 1.000000
vn 0.000000 0.000000 1.000000
s off
g pasted__VenrtanaBase_Mesh2Model group
usemtl lambert22SG
f 9/19/25 10/20/26 11/21/27 12/22/28
f 10/23/29 9/24/30 13/25/31 14/26/32
f 13/27/33 9/28/34 12/29/35 15/30/36
f 12/31/37 16/32/38 15/33/39
f 16/32/40 12/31/41 17/34/42
f 11/35/43 17/34/44 12/31/45
f 17/34/46 11/35/47 18/36/48
f 10/37/49 14/38/50 18/39/51 11/40/52
f 14/41/53 13/42/54 15/43/55 18/44/56
f 15/33/57 19/45/58 18/36/59
f 15/33/60 16/32/61 19/45/62
f 19/46/63 16/47/64 20/48/65 21/49/66
f 16/50/67 17/51/68 22/52/69 20/53/70
f 17/54/71 23/55/72 24/56/73 22/57/74
f 17/34/75 18/36/76 23/58/77
f 23/58/78 18/36/79 19/45/80
f 23/59/81 19/60/82 21/61/83 24/62/84
usemtl lambert28SG
f 20/63/85 22/64/86 24/65/87 21/66/88
g default
v -0.283824 0.449857 0.012440
v -0.283824 -0.421106 0.012440
v -0.283824 -0.421106 0.043000
v -0.283824 0.449857 0.043000
v 0.293046 0.449857 0.012440
v 0.293046 -0.421106 0.012440
v 0.293046 0.449857 0.043000
v -0.260172 0.409510 0.043000
v -0.260172 -0.400333 0.043000
v 0.293046 -0.421106 0.043000
v 0.271630 0.409510 0.043000
v -0.260172 0.409510 0.027720
v 0.271630 0.409510 0.027720
v -0.260172 -0.400333 0.027720
v 0.271630 -0.400333 0.043000
v 0.271630 -0.400333 0.027720
vt -58.222099 -0.000000
vt -13.340200 -0.000000
vt -13.340200 1.574800
vt -58.222099 1.574800
vt -27.756300 13.340200
vt -27.756300 58.222099
vt -52.953201 58.222099
vt -52.953201 13.340200
vt -52.953201 -0.000000
vt -27.756300 -0.000000
vt -27.756300 1.574800
vt -52.953201 1.574800
vt 27.756300 58.222099
vt 28.789400 56.142899
vt 52.953201 58.222099
vt 28.789400 14.410600
vt 27.756300 13.340200
vt 52.953201 13.340200
vt 27.756300 -0.000000
vt 52.953201 -0.000000
vt 52.953201 1.574800
vt 27.756300 1.574800
vt 13.340200 -0.000000
vt 58.222099 -0.000000
vt 58.222099 1.574800
vt 13.340200 1.574800
vt 52.017799 56.142899
vt 52.017799 1.574800
vt 28.789400 1.574800
vt 28.789400 0.787402
vt 52.017799 0.787402
vt 56.142899 1.574800
vt 14.410600 1.574800
vt 14.410600 0.787402
vt 56.142899 0.787402
vt -28.789400 1.574800
vt -52.017799 1.574800
vt -52.017799 0.787402
vt -28.789400 0.787402
vt 52.017799 14.410600
vt -14.410600 1.574800
vt -56.142899 1.574800
vt -56.142899 0.787402
vt -14.410600 0.787402
vt 0.000000 1.000000
vt 0.000000 0.000000
vt 1.000000 0.000000
vt 1.000000 1.000000
vn -1.000000 0.000000 0.000000
vn -1.000000 0.000000 0.000000
vn -1.000000 0.000000 0.000000
vn -1.000000 0.000000 0.000000
vn 0.000000 -0.000000 -1.000000
vn 0.000000 -0.000000 -1.000000
vn 0.000000 -0.000000 -1.000000
vn 0.000000 -0.000000 -1.000000
vn 0.000000 1.000000 0.000000
vn 0.000000 1.000000 0.000000
vn 0.000000 1.000000 0.000000
vn 0.000000 1.000000 0.000000
vn 0.000000 0.000000 1.000000
vn 0.000000 0.000000 1.000000
vn 0.000000 0.000000 1.000000
vn 0.000000 0.000000 1.000000
vn 0.000000 0.000000 1.000000
vn 0.000000 0.000000 1.000000
vn 0.000000 0.000000 1.000000
vn 0.000000 0.000000 1.000000
vn 0.000000 0.000000 1.000000
vn 0.000000 0.000000 1.000000
vn 0.000000 0.000000 1.000000
vn 0.000000 0.000000 1.000000
vn 0.000000 -1.000000 0.000000
vn 0.000000 -1.000000 0.000000
vn 0.000000 -1.000000 0.000000
vn 0.000000 -1.000000 0.000000
vn 1.000000 0.000000 0.000000
vn 1.000000 0.000000 0.000000
vn 1.000000 0.000000 0.000000
vn 1.000000 0.000000 0.000000
vn 0.000000 0.000000 1.000000
vn 0.000000 0.000000 1.000000
vn 0.000000 0.000000 1.000000
vn 0.000000 0.000000 1.000000
vn 0.000000 0.000000 1.000000
vn 0.000000 0.000000 1.000000
vn 0.000000 -1.000000 0.000000
vn 0.000000 -1.000000 0.000000
vn 0.000000 -1.000000 0.000000
vn 0.000000 -1.000000 0.000000
vn 1.000000 0.000000 0.000000
vn 1.000000 0.000000 0.000000
vn 1.000000 0.000000 0.000000
vn 1.000000 0.000000 0.000000
vn 0.000000 1.000000 0.000000
vn 0.000000 1.000000 0.000000
vn 0.000000 1.000000 0.000000
vn 0.000000 1.000000 0.000000
vn 0.000000 0.000000 1.000000
vn 0.000000 0.000000 1.000000
vn 0.000000 0.000000 1.000000
vn 0.000000 0.000000 1.000000
vn 0.000000 0.000000 1.000000
vn 0.000000 0.000000 1.000000
vn -1.000000 0.000000 0.000000
vn -1.000000 0.000000 0.000000
vn -1.000000 0.000000 0.000000
vn -1.000000 0.000000 0.000000
vn 0.000000 0.000000 1.000000
vn 0.000000 0.000000 1.000000
vn 0.000000 0.000000 1.000000
vn 0.000000 0.000000 1.000000
s off
g VenrtanaBase_Mesh2Model
usemtl lambert21SG
f 25/67/89 26/68/90 27/69/91 28/70/92
f 26/71/93 25/72/94 29/73/95 30/74/96
f 29/75/97 25/76/98 28/77/99 31/78/100
f 28/79/101 32/80/102 31/81/103
f 32/80/104 28/79/105 33/82/106
f 27/83/107 33/82/108 28/79/109
f 33/82/110 27/83/111 34/84/112
f 26/85/113 30/86/114 34/87/115 27/88/116
f 30/89/117 29/90/118 31/91/119 34/92/120
f 31/81/121 35/93/122 34/84/123
f 31/81/124 32/80/125 35/93/126
f 35/94/127 32/95/128 36/96/129 37/97/130
f 32/98/131 33/99/132 38/100/133 36/101/134
f 33/102/135 39/103/136 40/104/137 38/105/138
f 33/82/139 34/84/140 39/106/141
f 39/106/142 34/84/143 35/93/144
f 39/107/145 35/108/146 37/109/147 40/110/148
usemtl lambert29SG
f 36/111/149 38/112/150 40/113/151 37/114/152
