# This file uses centimeters as units for non-parametric coordinates.

mtllib Acetato.mtl
g default
v 0.323877 -0.008161 -0.107966
v 0.277115 -0.008161 -0.199742
v 0.204280 -0.008161 -0.272577
v 0.112503 -0.008161 -0.319340
v 0.010768 -0.008161 -0.335453
v -0.090968 -0.008161 -0.319340
v -0.182745 -0.008161 -0.272577
v -0.255579 -0.008161 -0.199742
v -0.302342 -0.008161 -0.107966
v -0.318455 -0.008161 -0.006230
v -0.302342 -0.008161 0.095505
v -0.255579 -0.008161 0.187282
v -0.182745 -0.008161 0.260117
v -0.090968 -0.008161 0.306880
v 0.010768 -0.008161 0.322993
v 0.112503 -0.008161 0.306880
v 0.204280 -0.008161 0.260117
v 0.277115 -0.008161 0.187282
v 0.323877 -0.008161 0.095505
v 0.339990 -0.008161 -0.006230
v 0.323877 0.008161 -0.107966
v 0.277115 0.008161 -0.199742
v 0.204280 0.008161 -0.272577
v 0.112503 0.008161 -0.319340
v 0.010768 0.008161 -0.335453
v -0.090968 0.008161 -0.319340
v -0.182745 0.008161 -0.272577
v -0.255579 0.008161 -0.199742
v -0.302342 0.008161 -0.107966
v -0.318455 0.008161 -0.006230
v -0.302342 0.008161 0.095505
v -0.255579 0.008161 0.187282
v -0.182745 0.008161 0.260117
v -0.090968 0.008161 0.306880
v 0.010768 0.008161 0.322993
v 0.112503 0.008161 0.306880
v 0.204280 0.008161 0.260117
v 0.277115 0.008161 0.187282
v 0.323877 0.008161 0.095505
v 0.339990 0.008161 -0.006230
v 0.010768 -0.008161 -0.006230
v 0.010768 0.008161 -0.006230
vt 0.904509 0.793893
vt 0.975529 0.654508
vt 0.500000 0.500000
vt 0.793893 0.904508
vt 0.654509 0.975528
vt 0.500000 1.000000
vt 0.345491 0.975528
vt 0.206107 0.904508
vt 0.095491 0.793893
vt 0.024472 0.654508
vt -0.000000 0.500000
vt 0.024472 0.345491
vt 0.095491 0.206107
vt 0.206107 0.095491
vt 0.345492 0.024472
vt 0.500000 -0.000000
vt 0.654508 0.024472
vt 0.793893 0.095491
vt 0.904508 0.206107
vt 0.975528 0.345491
vt 0.654508 -0.000000
vt 0.793893 -0.000000
vt 0.793893 1.000000
vt 0.654508 1.000000
vt 0.904508 -0.000000
vt 0.904508 1.000000
vt 0.975528 -0.000000
vt 0.975528 1.000000
vt 1.000000 -0.000000
vt 1.000000 1.000000
vt 0.975528 -0.000000
vt 0.975528 1.000000
vt 0.904508 -0.000000
vt 0.904508 1.000000
vt 0.793893 -0.000000
vt 0.793893 1.000000
vt 0.809564 -0.000000
vt 0.809564 1.000000
vt 0.655055 -0.000000
vt 0.655055 1.000000
vt 0.345491 -0.000000
vt 0.345491 1.000000
vt 0.206107 -0.000000
vt 0.206107 1.000000
vt 0.095491 -0.000000
vt 0.095491 1.000000
vt 0.024472 -0.000000
vt 0.024472 1.000000
vt -0.000000 -0.000000
vt -0.000000 1.000000
vt 0.024472 -0.000000
vt 0.024472 1.000000
vt 0.095491 -0.000000
vt 0.095491 1.000000
vt 0.206107 -0.000000
vt 0.206107 1.000000
vt 0.192822 -0.000000
vt 0.192822 1.000000
vt 0.347330 -0.000000
vt 0.347330 1.000000
vt 1.000000 0.500000
vt 1.000000 0.500000
vt 0.975529 0.654509
vt 0.904509 0.793893
vt 0.500000 0.500000
vt 0.793893 0.904509
vt 0.654509 0.975528
vt 0.500000 1.000000
vt 0.345492 0.975528
vt 0.206107 0.904509
vt 0.095492 0.793893
vt 0.024472 0.654509
vt 0.000000 0.500000
vt 0.024472 0.345492
vt 0.095492 0.206107
vt 0.206107 0.095492
vt 0.345492 0.024472
vt 0.500000 0.000000
vt 0.654509 0.024472
vt 0.793893 0.095492
vt 0.904509 0.206107
vt 0.975528 0.345492
vn 0.951057 0.000000 -0.309016
vn 0.809017 0.000000 -0.587786
vn 0.809017 0.000000 -0.587786
vn 0.951057 0.000000 -0.309016
vn 0.587785 0.000000 -0.809017
vn 0.587785 0.000000 -0.809017
vn 0.309017 0.000000 -0.951057
vn 0.309017 0.000000 -0.951057
vn -0.000000 0.000000 -1.000000
vn -0.000000 0.000000 -1.000000
vn -0.309017 0.000000 -0.951056
vn -0.309017 0.000000 -0.951056
vn -0.587785 0.000000 -0.809017
vn -0.587785 0.000000 -0.809017
vn -0.809017 0.000000 -0.587785
vn -0.809017 0.000000 -0.587785
vn -0.951057 0.000000 -0.309017
vn -0.951057 0.000000 -0.309017
vn -1.000000 0.000000 -0.000000
vn -1.000000 0.000000 -0.000000
vn -0.951056 0.000000 0.309017
vn -0.951056 0.000000 0.309017
vn -0.809017 0.000000 0.587785
vn -0.809017 0.000000 0.587785
vn -0.587785 0.000000 0.809017
vn -0.587785 0.000000 0.809017
vn -0.309017 0.000000 0.951057
vn -0.309017 0.000000 0.951057
vn 0.000000 0.000000 1.000000
vn 0.000000 0.000000 1.000000
vn 0.309017 0.000000 0.951057
vn 0.309017 0.000000 0.951057
vn 0.587785 0.000000 0.809017
vn 0.587785 0.000000 0.809017
vn 0.809017 0.000000 0.587785
vn 0.809017 0.000000 0.587785
vn 0.951057 0.000000 0.309017
vn 0.951057 0.000000 0.309017
vn 1.000000 0.000000 0.000001
vn 1.000000 0.000000 0.000001
vn 0.000000 -1.000000 0.000000
vn 0.000000 -1.000000 0.000000
vn 0.000000 -1.000000 0.000000
vn 0.000000 -1.000000 0.000000
vn 0.000000 -1.000000 0.000000
vn 0.000000 -1.000000 0.000000
vn 0.000000 -1.000000 0.000000
vn 0.000000 -1.000000 0.000000
vn 0.000000 -1.000000 0.000000
vn 0.000000 -1.000000 0.000000
vn 0.000000 -1.000000 0.000000
vn 0.000000 -1.000000 0.000000
vn 0.000000 -1.000000 0.000000
vn 0.000000 -1.000000 0.000000
vn 0.000000 -1.000000 0.000000
vn 0.000000 -1.000000 0.000000
vn 0.000000 -1.000000 0.000000
vn 0.000000 -1.000000 0.000000
vn 0.000000 -1.000000 0.000000
vn 0.000000 -1.000000 0.000000
vn 0.000000 -1.000000 0.000000
vn 0.000000 1.000000 0.000000
vn 0.000000 1.000000 0.000000
vn 0.000000 1.000000 -0.000000
vn 0.000000 1.000000 0.000000
vn 0.000000 1.000000 0.000000
vn 0.000000 1.000000 0.000000
vn 0.000000 1.000000 0.000000
vn 0.000000 1.000000 0.000000
vn 0.000000 1.000000 0.000000
vn 0.000000 1.000000 0.000000
vn 0.000000 1.000000 0.000000
vn 0.000000 1.000000 0.000000
vn 0.000000 1.000000 0.000000
vn 0.000000 1.000000 0.000000
vn 0.000000 1.000000 0.000000
vn 0.000000 1.000000 -0.000000
vn 0.000000 1.000000 -0.000000
vn 0.000000 1.000000 0.000000
vn 0.000000 1.000000 0.000000
vn 0.000000 1.000000 0.000000
vn 0.000000 1.000000 0.000000
s 1
g pCylinder1
usemtl lambert7SG
f 1/21/1 2/22/2 22/23/3 21/24/4
f 2/22/2 3/25/5 23/26/6 22/23/3
f 3/25/5 4/27/7 24/28/8 23/26/6
f 4/27/7 5/29/9 25/30/10 24/28/8
f 5/29/9 6/31/11 26/32/12 25/30/10
f 6/31/11 7/33/13 27/34/14 26/32/12
f 7/33/13 8/35/15 28/36/16 27/34/14
f 8/35/15 9/37/17 29/38/18 28/36/16
f 9/37/17 10/39/19 30/40/20 29/38/18
f 10/39/19 11/41/21 31/42/22 30/40/20
f 11/41/21 12/43/23 32/44/24 31/42/22
f 12/43/23 13/45/25 33/46/26 32/44/24
f 13/45/25 14/47/27 34/48/28 33/46/26
f 14/47/27 15/49/29 35/50/30 34/48/28
f 15/49/29 16/51/31 36/52/32 35/50/30
f 16/51/31 17/53/33 37/54/34 36/52/32
f 17/53/33 18/55/35 38/56/36 37/54/34
f 18/55/35 19/57/37 39/58/38 38/56/36
f 19/57/37 20/59/39 40/60/40 39/58/38
f 20/59/39 1/21/1 21/24/4 40/60/40
s 2
usemtl initialShadingGroup
f 2/1/41 1/2/42 41/3/43
f 3/4/44 2/1/41 41/3/43
f 4/5/45 3/4/44 41/3/43
f 5/6/46 4/5/45 41/3/43
f 6/7/47 5/6/46 41/3/43
f 7/8/48 6/7/47 41/3/43
f 8/9/49 7/8/48 41/3/43
f 9/10/50 8/9/49 41/3/43
f 10/11/51 9/10/50 41/3/43
f 11/12/52 10/11/51 41/3/43
f 12/13/53 11/12/52 41/3/43
f 13/14/54 12/13/53 41/3/43
f 14/15/55 13/14/54 41/3/43
f 15/16/56 14/15/55 41/3/43
f 16/17/57 15/16/56 41/3/43
f 17/18/58 16/17/57 41/3/43
f 18/19/59 17/18/58 41/3/43
f 19/20/60 18/19/59 41/3/43
f 20/62/61 19/20/60 41/3/43
f 1/2/42 20/62/61 41/3/43
s 3
usemtl lambert6SG
f 21/63/62 22/64/63 42/65/64
f 22/64/63 23/66/65 42/65/64
f 23/66/65 24/67/66 42/65/64
f 24/67/66 25/68/67 42/65/64
f 25/68/67 26/69/68 42/65/64
f 26/69/68 27/70/69 42/65/64
f 27/70/69 28/71/70 42/65/64
f 28/71/70 29/72/71 42/65/64
f 29/72/71 30/73/72 42/65/64
f 30/73/72 31/74/73 42/65/64
f 31/74/73 32/75/74 42/65/64
f 32/75/74 33/76/75 42/65/64
f 33/76/75 34/77/76 42/65/64
f 34/77/76 35/78/77 42/65/64
f 35/78/77 36/79/78 42/65/64
f 36/79/78 37/80/79 42/65/64
f 37/80/79 38/81/80 42/65/64
f 38/81/80 39/82/81 42/65/64
f 39/82/81 40/61/82 42/65/64
f 40/61/82 21/63/62 42/65/64
