# This file uses centimeters as units for non-parametric coordinates.

mtllib PlumaT.mtl
g default
v -0.202245 0.033906 0.631094
v 0.033588 0.033906 -0.014073
v -0.000660 0.033906 -0.017448
v -0.236491 0.033906 0.627720
v -0.195982 0.007728 0.613963
v 0.023265 0.007727 0.014165
v 0.033588 0.007727 -0.014073
v -0.202245 -0.018451 0.631094
v -0.195982 -0.018451 0.613963
v -0.230230 0.007727 0.610588
v -0.022011 0.007727 0.040965
v -0.014914 0.007727 0.041120
v -0.004578 0.007727 0.038262
v 0.005687 0.007727 0.032529
v 0.015186 0.007727 0.024310
v -0.230230 -0.018451 0.610588
v -0.213105 -0.044630 0.612276
v -0.000660 0.007727 -0.017448
v -0.236491 -0.018451 0.627720
v 0.029380 0.007727 0.002788
v 0.033111 0.007727 -0.009048
v -0.219368 -0.044630 0.629407
vt 22.333599 23.864500
vt 19.750000 33.866798
vt 19.297001 33.616402
vt 21.880600 23.614100
vt 17.795000 6.339940
vt 27.399099 6.339940
vt 27.851299 6.339940
vt 27.851299 6.733640
vt 17.520700 6.733640
vt 17.520700 5.946240
vt 17.795000 5.946240
vt -19.863001 33.429001
vt -22.264999 24.130100
vt -21.812000 23.879700
vt -19.530899 32.710800
vt -19.620199 32.769402
vt -19.723801 32.893002
vt -19.802000 33.051601
vt -19.849501 33.234501
vt -30.642300 5.946240
vt -30.642300 6.339940
vt -31.159800 6.339940
vt -31.159800 5.946240
vt -30.901100 5.552540
vt -17.391600 6.733640
vt -27.722099 6.733640
vt -27.722099 6.339940
vt -26.786800 6.339940
vt -17.665899 6.339940
vt -17.665899 5.946240
vt -17.391600 5.946240
vt -33.151699 6.733640
vt -33.669300 6.733640
vt -33.669300 6.339940
vt -33.151699 6.339940
vt 19.802000 33.051601
vt 19.849501 33.234501
vt 19.863001 33.429001
vt 19.530899 32.710800
vt 19.620199 32.769402
vt 19.723801 32.893002
vt 19.841700 33.622101
vt 19.786900 33.800499
vt -17.391600 -9.530140
vt -17.665899 -9.530140
vt -17.730400 -9.996820
vt -17.456100 -9.996820
vt 17.456100 19.365200
vt 17.730400 19.365200
vt 17.795000 19.831900
vt 17.520700 19.831900
vt 30.573799 6.733640
vt 30.573799 5.946240
vt 30.832600 5.552540
vt 31.091400 5.946240
vt 31.091400 6.733640
vt 19.750000 33.866798
vt 19.297001 33.616402
vn -0.000001 1.000000 -0.000000
vn -0.000001 1.000000 -0.000000
vn -0.000001 1.000000 -0.000000
vn -0.000001 1.000000 -0.000000
vn 0.939218 -0.000000 0.343322
vn 0.939218 -0.000000 0.343322
vn 0.939218 -0.000000 0.343322
vn 0.939218 -0.000000 0.343322
vn 0.939218 -0.000000 0.343322
vn 0.939218 -0.000000 0.343322
vn 0.939218 -0.000000 0.343322
vn 0.000001 -1.000000 0.000001
vn 0.000001 -1.000000 0.000001
vn 0.000001 -1.000000 0.000001
vn 0.000001 -1.000000 0.000001
vn 0.000001 -1.000000 0.000001
vn 0.000001 -1.000000 0.000001
vn 0.000001 -1.000000 0.000001
vn 0.000001 -1.000000 0.000001
vn 0.098071 -0.000008 -0.995179
vn 0.098071 -0.000008 -0.995179
vn 0.098071 -0.000008 -0.995179
vn 0.098071 -0.000008 -0.995179
vn 0.098071 -0.000008 -0.995179
vn -0.939220 -0.000001 -0.343315
vn -0.939220 -0.000001 -0.343316
vn -0.939220 -0.000001 -0.343315
vn -0.939220 -0.000001 -0.343315
vn -0.939220 -0.000001 -0.343316
vn -0.939220 -0.000001 -0.343315
vn -0.939220 -0.000001 -0.343315
vn 0.098079 0.000000 -0.995179
vn 0.098079 0.000000 -0.995179
vn 0.098079 0.000000 -0.995179
vn 0.098079 0.000000 -0.995179
vn -0.000000 1.000000 -0.000000
vn -0.000000 1.000000 -0.000000
vn -0.000000 1.000000 -0.000000
vn -0.000000 1.000000 -0.000000
vn -0.000000 1.000000 -0.000000
vn -0.000000 1.000000 -0.000000
vn -0.000000 1.000000 -0.000000
vn -0.000000 1.000000 -0.000000
vn 0.000001 1.000000 0.000012
vn 0.000001 1.000000 0.000012
vn 0.000001 1.000000 0.000012
vn 0.000001 1.000000 0.000012
vn -0.792334 -0.536963 -0.289616
vn -0.792334 -0.536963 -0.289616
vn -0.792334 -0.536963 -0.289616
vn -0.792334 -0.536963 -0.289616
vn 0.792341 -0.536918 0.289678
vn 0.792342 -0.536919 0.289678
vn 0.792342 -0.536918 0.289678
vn 0.792342 -0.536919 0.289678
vn -0.098040 -0.000002 0.995182
vn -0.098040 -0.000002 0.995183
vn -0.098040 -0.000002 0.995183
vn -0.098040 -0.000002 0.995182
vn -0.098040 -0.000002 0.995182
s off
g pasted__TocadiscosFachero_Mesh2Model group
usemtl lambert3SG
f 1/1/1 2/2/2 3/3/3 4/4/4
f 5/5/5 6/6/6 7/7/7 2/8/8 1/9/9 8/10/10 9/11/11
f 6/12/12 5/13/13 10/14/14 11/15/15 12/16/16 13/17/17 14/18/18 15/19/19
f 16/20/20 10/21/21 5/22/22 9/23/23 17/24/24
f 4/25/25 3/26/26 18/27/27 11/28/28 10/29/29 16/30/30 19/31/31
f 3/32/32 2/33/33 7/34/34 18/35/35
f 14/36/36 15/37/37 6/38/38 7/57/39 18/58/40 11/39/41 12/40/42 13/41/43
f 6/38/44 20/42/45 21/43/46 7/57/47
f 19/44/48 16/45/49 17/46/50 22/47/51
f 22/48/52 17/49/53 9/50/54 8/51/55
f 4/52/56 19/53/57 22/54/58 8/55/59 1/56/60
