# This file uses centimeters as units for non-parametric coordinates.

mtllib Boxy.mtl
g default
v -0.500000 -0.496768 -0.503211
v 0.500000 -0.496768 -0.503211
v -0.500000 -0.503211 0.496768
v 0.500000 -0.503211 0.496768
v -0.500000 0.496768 0.503211
v 0.500000 0.496768 0.503211
v -0.500000 0.503211 -0.496768
v 0.500000 0.503211 -0.496768
vt 0.281616 0.022038
vt 0.496153 0.019991
vt 0.274677 0.335103
vt 0.505068 0.332881
vt 0.272867 0.642203
vt 0.504656 0.642203
vt 0.271086 0.815192
vt 0.504984 0.815192
vt 0.271380 0.941559
vt 0.500247 0.941559
vt 0.770810 0.062970
vt 0.775061 0.312970
vt 0.023032 0.062970
vt 0.029120 0.312970
vn 0.000000 -0.999979 -0.006443
vn 0.000000 -0.999979 -0.006443
vn 0.000000 -0.999979 -0.006443
vn 0.000000 -0.999979 -0.006443
vn 0.000000 -0.006443 0.999979
vn 0.000000 -0.006443 0.999979
vn 0.000000 -0.006443 0.999979
vn 0.000000 -0.006443 0.999979
vn 0.000000 0.999979 0.006443
vn 0.000000 0.999979 0.006443
vn 0.000000 0.999979 0.006443
vn 0.000000 0.999979 0.006443
vn 0.000000 0.006443 -0.999979
vn 0.000000 0.006443 -0.999979
vn 0.000000 0.006443 -0.999979
vn 0.000000 0.006443 -0.999979
vn 1.000000 0.000000 0.000000
vn 1.000000 0.000000 0.000000
vn 1.000000 0.000000 0.000000
vn 1.000000 0.000000 0.000000
vn -1.000000 0.000000 0.000000
vn -1.000000 0.000000 0.000000
vn -1.000000 0.000000 0.000000
vn -1.000000 0.000000 0.000000
s off
g pCube1
usemtl initialShadingGroup
f 1/1/1 2/2/2 4/4/3 3/3/4
f 3/3/5 4/4/6 6/6/7 5/5/8
f 5/5/9 6/6/10 8/8/11 7/7/12
f 7/7/13 8/8/14 2/10/15 1/9/16
f 2/2/17 8/11/18 6/12/19 4/4/20
f 7/13/21 1/1/22 3/3/23 5/14/24
