# This file uses centimeters as units for non-parametric coordinates.

mtllib Hacha.mtl
g default
v -0.855583 4.176713 3.579121
v -1.112759 4.162402 3.539647
v -0.912402 3.998252 3.764208
v -1.094887 3.988097 3.736199
v -0.107347 -0.141338 0.019950
v -0.289831 -0.151493 -0.008060
v -0.050528 0.037123 -0.165138
v -0.307703 0.022812 -0.204611
v -0.725862 4.100369 3.398507
v -1.173464 4.075461 3.329805
v -0.820559 3.666699 3.935220
v -1.197154 3.645743 3.877417
v -0.977460 3.446895 4.473374
v -1.185484 3.435320 4.441445
v -1.055478 3.414247 4.770069
v -1.196692 3.406389 4.748394
v -1.003451 2.644741 4.543789
v -1.094942 2.639650 4.529746
v -0.883368 2.027278 3.985294
v -0.974859 2.022187 3.971251
v -0.729115 1.736089 3.252175
v -0.870329 1.728231 3.230501
v -0.703676 2.039095 3.200019
v -0.911699 2.027520 3.168090
v -0.609115 2.579459 2.951812
v -0.985711 2.558503 2.894009
v -0.529131 3.088781 2.483527
v -0.976733 3.063874 2.414825
v -1.018107 3.703788 3.949343
v -1.098302 3.527647 4.535684
v -1.152540 3.483829 4.904935
v -1.055252 2.587344 4.596108
v -0.935170 1.969882 4.037613
v -0.782073 1.578891 3.181919
v -0.790857 1.946768 3.105780
v -0.788162 2.521413 2.879886
v -0.752932 3.076328 2.449176
v -0.949663 4.087915 3.364156
v -1.209230 3.790672 3.675393
v -0.991401 3.826594 3.730828
v -0.764414 3.815424 3.743668
v -0.560400 2.766389 2.794816
v -0.778229 2.730467 2.739381
v -1.005217 2.741637 2.726541
v -1.186655 3.540582 4.116958
v -1.051150 3.612855 4.197592
v -0.890738 3.557049 4.162378
v -0.656354 2.351850 3.072276
v -0.791858 2.279577 2.991642
v -0.952271 2.335384 3.026856
v -1.150991 3.017300 4.691291
v -1.110789 3.023615 4.799773
v -1.039553 3.023501 4.708395
v -0.807419 1.829870 3.628755
v -0.858407 1.725866 3.625958
v -0.918857 1.823669 3.611651
vt 0.750155 0.143208
vt 0.858589 0.143208
vt 0.858589 0.550035
vt 0.750155 0.550035
vt 0.649401 0.554669
vt 0.757836 0.554669
vt 0.757836 0.961495
vt 0.649401 0.961495
vt 0.760152 0.554669
vt 0.839937 0.554669
vt 0.839937 0.947001
vt 0.760152 0.947001
vt 0.860558 0.550035
vt 0.860558 0.143208
vt 0.968992 0.143208
vt 0.968992 0.550035
vt 0.649401 0.048356
vt 0.761842 0.048356
vt 0.745514 0.131168
vt 0.665729 0.131168
vt 0.780233 0.048356
vt 0.860017 0.048356
vt 0.876345 0.131168
vt 0.763905 0.131168
vt 0.580964 0.306612
vt 0.580964 0.306612
vt 0.459407 0.288865
vt 0.459407 0.298751
vt 0.392968 0.290731
vt 0.392968 0.270760
vt 0.326348 0.239082
vt 0.326348 0.265969
vt 0.242661 0.223439
vt 0.242661 0.187106
vt 0.160240 0.119080
vt 0.176207 0.166685
vt 0.097529 0.246541
vt 0.117086 0.268397
vt 0.081002 0.389347
vt 0.059040 0.389347
vt 0.059040 0.648583
vt 0.081002 0.648582
vt 0.117086 0.769532
vt 0.097529 0.791389
vt 0.160240 0.918850
vt 0.176207 0.871244
vt 0.242661 0.850823
vt 0.242661 0.814490
vt 0.326348 0.771960
vt 0.326348 0.798847
vt 0.392968 0.767169
vt 0.392968 0.747198
vt 0.459406 0.739178
vt 0.459406 0.749064
vt 0.580964 0.731317
vt 0.580964 0.731317
vt 0.580964 0.306612
vt 0.580964 0.731317
vt 0.459406 0.739178
vt 0.459407 0.298751
vt 0.392968 0.290731
vt 0.392968 0.747198
vt 0.326348 0.771960
vt 0.326348 0.265969
vt 0.242661 0.223439
vt 0.242661 0.814490
vt 0.176207 0.871244
vt 0.176207 0.166685
vt 0.117086 0.769532
vt 0.117086 0.268397
vt 0.081002 0.389347
vt 0.081002 0.648582
vn -0.142753 0.734037 0.663936
vn -0.142753 0.734037 0.663936
vn -0.142753 0.734037 0.663936
vn -0.142753 0.734037 0.663936
vn -0.074731 -0.676885 0.732285
vn -0.074731 -0.676885 0.732285
vn -0.074731 -0.676885 0.732285
vn -0.074731 -0.676885 0.732285
vn 0.142753 -0.734037 -0.663936
vn 0.142753 -0.734037 -0.663936
vn 0.142753 -0.734037 -0.663936
vn 0.142753 -0.734037 -0.663936
vn 0.074731 0.676885 -0.732285
vn 0.074731 0.676885 -0.732285
vn 0.074731 0.676885 -0.732285
vn 0.074731 0.676885 -0.732285
vn -0.987428 -0.151622 -0.044677
vn -0.987428 -0.151622 -0.044677
vn -0.987428 -0.151622 -0.044677
vn -0.987428 -0.151622 -0.044677
vn 0.965950 -0.042923 0.255145
vn 0.965950 -0.042923 0.255145
vn 0.965950 -0.042923 0.255145
vn 0.965950 -0.042923 0.255145
vn -0.065374 0.795173 0.602848
vn -0.065374 0.795173 0.602848
vn -0.065374 0.795173 0.602848
vn -0.065374 0.795173 0.602848
vn 0.281806 0.860566 0.424277
vn 0.281806 0.860566 0.424277
vn 0.281806 0.860566 0.424277
vn 0.281806 0.860567 0.424277
vn 0.679082 0.701735 0.215441
vn 0.679082 0.701735 0.215441
vn 0.679082 0.701735 0.215441
vn 0.679082 0.701735 0.215441
vn 0.790819 -0.065703 0.608513
vn 0.790819 -0.065703 0.608513
vn 0.790819 -0.065703 0.608513
vn 0.790819 -0.065703 0.608513
vn 0.819586 -0.288406 0.495077
vn 0.819586 -0.288406 0.495077
vn 0.819586 -0.288406 0.495077
vn 0.819586 -0.288406 0.495077
vn 0.860167 -0.422288 0.285982
vn 0.860167 -0.422288 0.285982
vn 0.860167 -0.422288 0.285982
vn 0.860167 -0.422288 0.285982
vn 0.839308 -0.122143 -0.529757
vn 0.839308 -0.122143 -0.529757
vn 0.839308 -0.122143 -0.529757
vn 0.839308 -0.122143 -0.529757
vn 0.531096 -0.421285 -0.735157
vn 0.531096 -0.421285 -0.735157
vn 0.531096 -0.421285 -0.735157
vn 0.531096 -0.421285 -0.735157
vn 0.218211 -0.663023 -0.716089
vn 0.218211 -0.663023 -0.716089
vn 0.218211 -0.663023 -0.716089
vn 0.218211 -0.663023 -0.716089
vn 0.074731 0.676885 -0.732285
vn 0.074731 0.676885 -0.732285
vn 0.074731 0.676885 -0.732285
vn 0.074731 0.676885 -0.732285
vn -0.987163 -0.057049 -0.149178
vn -0.987163 -0.057049 -0.149178
vn -0.987163 -0.057049 -0.149178
vn -0.987163 -0.057049 -0.149178
vn -0.985824 -0.165205 -0.029315
vn -0.985824 -0.165205 -0.029315
vn -0.985823 -0.165205 -0.029315
vn -0.985824 -0.165205 -0.029315
vn -0.987881 -0.146964 -0.049924
vn -0.987881 -0.146964 -0.049924
vn -0.987881 -0.146964 -0.049924
vn -0.987881 -0.146964 -0.049924
vn -0.989737 -0.101486 -0.100603
vn -0.989737 -0.101486 -0.100603
vn -0.989737 -0.101486 -0.100603
vn -0.989737 -0.101486 -0.100603
vn 0.986693 0.052789 0.153787
vn 0.986693 0.052789 0.153787
vn 0.986693 0.052789 0.153787
vn 0.986693 0.052789 0.153787
vn 0.961307 -0.056853 0.269548
vn 0.961307 -0.056854 0.269548
vn 0.961307 -0.056853 0.269548
vn 0.961307 -0.056853 0.269548
vn 0.967443 -0.038157 0.250197
vn 0.967443 -0.038157 0.250197
vn 0.967443 -0.038157 0.250197
vn 0.967443 -0.038157 0.250197
vn 0.979426 0.008091 0.201642
vn 0.979426 0.008091 0.201642
vn 0.979426 0.008091 0.201642
vn 0.979426 0.008091 0.201642
vn -0.487323 0.817767 0.306224
vn -0.487323 0.817767 0.306224
vn -0.487323 0.817767 0.306224
vn -0.487323 0.817767 0.306224
vn -0.784309 0.620303 -0.009173
vn -0.784309 0.620302 -0.009174
vn -0.784309 0.620302 -0.009174
vn -0.784309 0.620302 -0.009173
vn -0.924582 -0.161159 0.345218
vn -0.924582 -0.161159 0.345218
vn -0.924582 -0.161159 0.345218
vn -0.924582 -0.161159 0.345218
vn -0.893795 -0.383750 0.232092
vn -0.893795 -0.383750 0.232092
vn -0.893795 -0.383750 0.232092
vn -0.893795 -0.383750 0.232092
vn -0.855235 -0.517744 0.022687
vn -0.855235 -0.517744 0.022687
vn -0.855235 -0.517744 0.022687
vn -0.855235 -0.517744 0.022687
vn -0.624084 -0.203576 -0.754371
vn -0.624084 -0.203576 -0.754371
vn -0.624084 -0.203576 -0.754371
vn -0.624084 -0.203576 -0.754371
vn -0.238032 -0.464084 -0.853210
vn -0.238032 -0.464084 -0.853210
vn -0.238032 -0.464084 -0.853210
vn -0.238032 -0.464084 -0.853210
vn 0.079110 -0.670764 -0.737440
vn 0.079110 -0.670764 -0.737440
vn 0.079110 -0.670764 -0.737440
vn 0.079110 -0.670764 -0.737440
vn 0.074731 0.676885 -0.732285
vn 0.074731 0.676885 -0.732285
vn 0.074731 0.676885 -0.732285
vn 0.074731 0.676885 -0.732285
vn -0.204476 0.787432 0.581498
vn -0.204476 0.787432 0.581498
vn -0.204476 0.787432 0.581498
vn -0.204476 0.787432 0.581498
vn -0.347409 0.796440 0.494964
vn -0.347409 0.796440 0.494964
vn -0.347409 0.796440 0.494964
vn -0.347409 0.796440 0.494964
vn 0.095034 0.821061 0.562874
vn 0.095034 0.821061 0.562874
vn 0.095034 0.821061 0.562875
vn 0.095034 0.821061 0.562874
vn 0.966834 -0.040119 0.252234
vn 0.966834 -0.040119 0.252234
vn 0.966834 -0.040119 0.252234
vn 0.966834 -0.040119 0.252234
vn 0.369931 -0.592452 -0.715647
vn 0.369931 -0.592452 -0.715647
vn 0.369931 -0.592452 -0.715647
vn 0.369931 -0.592452 -0.715647
vn -0.072514 -0.617073 -0.783558
vn -0.072514 -0.617073 -0.783558
vn -0.072514 -0.617073 -0.783558
vn -0.072514 -0.617073 -0.783558
vn -0.987701 -0.148882 -0.047765
vn -0.987701 -0.148882 -0.047765
vn -0.987701 -0.148882 -0.047765
vn -0.987701 -0.148882 -0.047765
vn -0.666041 0.727883 0.163022
vn -0.666041 0.727883 0.163022
vn -0.666041 0.727883 0.163022
vn -0.666041 0.727883 0.163022
vn 0.503805 0.792981 0.342580
vn 0.503805 0.792981 0.342580
vn 0.503805 0.792981 0.342580
vn 0.503805 0.792981 0.342580
vn 0.966162 -0.042255 0.254452
vn 0.966162 -0.042255 0.254452
vn 0.966162 -0.042255 0.254452
vn 0.966162 -0.042255 0.254452
vn 0.714398 -0.289883 -0.636870
vn 0.714398 -0.289883 -0.636870
vn 0.714398 -0.289883 -0.636870
vn 0.714398 -0.289883 -0.636870
vn -0.455448 -0.354981 -0.816428
vn -0.455448 -0.354981 -0.816428
vn -0.455448 -0.354981 -0.816428
vn -0.455448 -0.354981 -0.816428
vn -0.987495 -0.150970 -0.045412
vn -0.987495 -0.150970 -0.045412
vn -0.987495 -0.150970 -0.045412
vn -0.987495 -0.150970 -0.045412
vn -0.899716 -0.275320 0.338689
vn -0.899716 -0.275320 0.338689
vn -0.899716 -0.275320 0.338689
vn -0.899716 -0.275320 0.338689
vn 0.781572 -0.181762 0.596748
vn 0.781572 -0.181762 0.596748
vn 0.781572 -0.181762 0.596748
vn 0.781572 -0.181762 0.596748
vn 0.978446 0.003532 0.206472
vn 0.978446 0.003532 0.206472
vn 0.978446 0.003532 0.206472
vn 0.978446 0.003532 0.206472
vn 0.824743 -0.403750 0.395960
vn 0.824743 -0.403750 0.395960
vn 0.824743 -0.403750 0.395960
vn 0.824743 -0.403750 0.395960
vn -0.856544 -0.497308 0.137901
vn -0.856544 -0.497308 0.137901
vn -0.856544 -0.497308 0.137901
vn -0.856544 -0.497308 0.137901
vn -0.989758 -0.105992 -0.095626
vn -0.989758 -0.105992 -0.095626
vn -0.989758 -0.105992 -0.095626
vn -0.989758 -0.105992 -0.095626
s off
g axe:pCube3
usemtl axe:pCube3SG
f 1/17/1 2/18/2 4/19/3 3/20/4
f 3/9/5 4/10/6 6/11/7 5/12/8
f 5/21/9 6/22/10 8/23/11 7/24/12
f 7/13/13 8/14/14 2/15/15 1/16/16
f 2/1/17 8/2/18 6/3/19 4/4/20
f 7/5/21 1/6/22 3/7/23 5/8/24
f 9/25/25 38/26/26 40/27/27 41/28/28
f 11/29/29 29/30/30 46/31/31 47/32/32
f 13/33/33 30/34/34 31/35/35 15/36/36
f 15/36/37 31/35/38 52/37/39 53/38/40
f 17/39/41 32/40/42 33/41/43 19/42/44
f 54/43/45 55/44/46 34/45/47 21/46/48
f 21/46/49 34/45/50 35/47/51 23/48/52
f 48/49/53 49/50/54 36/51/55 25/52/56
f 42/53/57 43/54/58 37/55/59 27/56/60
f 27/56/61 37/55/62 38/26/63 9/25/64
f 10/57/65 28/58/66 44/59/67 39/60/68
f 12/61/69 26/62/70 50/63/71 45/64/72
f 14/65/73 24/66/74 22/67/75 16/68/76
f 16/68/77 22/67/78 56/69/79 51/70/80
f 27/56/81 9/25/82 41/28/83 42/53/84
f 25/52/85 11/29/86 47/32/87 48/49/88
f 23/48/89 13/33/90 15/36/91 21/46/92
f 21/46/93 15/36/94 53/38/95 54/43/96
f 29/30/97 12/61/98 45/64/99 46/31/100
f 31/35/101 30/34/102 14/65/103 16/68/104
f 52/37/105 31/35/106 16/68/107 51/70/108
f 33/41/109 32/40/110 18/71/111 20/72/112
f 34/45/113 55/44/114 56/69/115 22/67/116
f 35/47/117 34/45/118 22/67/119 24/66/120
f 36/51/121 49/50/122 50/63/123 26/62/124
f 37/55/125 43/54/126 44/59/127 28/58/128
f 38/26/129 37/55/130 28/58/131 10/57/132
f 40/27/133 38/26/134 10/57/135 39/60/136
f 29/30/137 40/27/138 39/60/139 12/61/140
f 41/28/141 40/27/142 29/30/143 11/29/144
f 42/53/145 41/28/146 11/29/147 25/52/148
f 25/52/149 36/51/150 43/54/151 42/53/152
f 44/59/153 43/54/154 36/51/155 26/62/156
f 39/60/157 44/59/158 26/62/159 12/61/160
f 46/31/161 45/64/162 14/65/163 30/34/164
f 47/32/165 46/31/166 30/34/167 13/33/168
f 48/49/169 47/32/170 13/33/171 23/48/172
f 23/48/173 35/47/174 49/50/175 48/49/176
f 50/63/177 49/50/178 35/47/179 24/66/180
f 45/64/181 50/63/182 24/66/183 14/65/184
f 32/40/185 52/37/186 51/70/187 18/71/188
f 53/38/189 52/37/190 32/40/191 17/39/192
f 54/43/193 53/38/194 17/39/195 19/42/196
f 19/42/197 33/41/198 55/44/199 54/43/200
f 56/69/201 55/44/202 33/41/203 20/72/204
f 51/70/205 56/69/206 20/72/207 18/71/208
