# This file uses centimeters as units for non-parametric coordinates.

mtllib mesaD.mtl
g default
v 0.727113 -0.000163 -1.256005
v 0.727113 -0.000163 -1.136386
v 0.607493 -0.000163 -1.136386
v 0.607493 -0.000163 -1.256005
v 0.607493 1.494836 -1.256005
v 0.727113 1.494836 -1.256005
v 0.607493 1.494836 -1.136386
v 0.727113 1.494836 -1.136386
v -0.697447 -0.000163 -1.256005
v -0.577828 -0.000163 -1.256005
v -0.577828 -0.000163 -1.136386
v -0.697447 -0.000163 -1.136386
v -0.697447 1.494836 -1.136386
v -0.697447 1.494836 -1.256005
v -0.577828 1.494836 -1.136386
v -0.577828 1.494836 -1.256005
v 0.607493 -0.000163 1.256005
v 0.607493 -0.000163 1.136386
v 0.727113 -0.000163 1.136386
v 0.727113 -0.000163 1.256005
v 0.727113 1.494836 1.256005
v 0.607493 1.494836 1.256005
v 0.727113 1.494836 1.136386
v 0.607493 1.494836 1.136386
v -0.577828 -0.000163 1.256005
v -0.697447 -0.000163 1.256005
v -0.697447 -0.000163 1.136386
v -0.577828 -0.000163 1.136386
v -0.577828 1.494836 1.136386
v -0.577828 1.494836 1.256005
v -0.697447 1.494836 1.136386
v -0.697447 1.494836 1.256005
v -0.594139 1.279239 -1.141823
v -0.594139 1.496729 -1.141823
v -0.594145 1.496729 1.141823
v -0.594145 1.279239 1.141823
v -0.681135 1.279239 -1.141823
v -0.681141 1.279239 1.141823
v -0.681141 1.496729 1.141823
v -0.681135 1.496729 -1.141823
v -0.582221 1.279239 1.152697
v -0.582221 1.496729 1.152697
v 0.611816 1.496729 1.152697
v 0.611816 1.279239 1.152697
v -0.582221 1.279239 1.239693
v 0.611816 1.279239 1.239693
v 0.611816 1.496729 1.239693
v -0.582221 1.496729 1.239693
v 0.623800 1.279239 1.141823
v 0.623800 1.496729 1.141823
v 0.623805 1.496729 -1.141823
v 0.623805 1.279239 -1.141823
v 0.710796 1.279239 1.141823
v 0.710801 1.279239 -1.141823
v 0.710801 1.496729 -1.141823
v 0.710796 1.496729 1.141823
v 0.611609 1.279239 -1.152697
v 0.611609 1.496729 -1.152697
v -0.582427 1.496729 -1.152697
v -0.582427 1.279239 -1.152697
v 0.611609 1.279239 -1.239693
v -0.582427 1.279239 -1.239693
v -0.582427 1.496729 -1.239693
v 0.611609 1.496729 -1.239693
v 0.817572 1.543832 1.337907
v 0.817572 1.543832 -1.337907
v -0.787912 1.543832 -1.337907
v -0.787912 1.543832 1.337907
v -0.787912 1.490313 1.337907
v -0.787912 1.490313 -1.337907
v 0.817572 1.490313 1.337907
v 0.817572 1.490313 -1.337907
vt 1.050800 0.985700
vt 1.050800 0.905700
vt 1.130900 0.905700
vt 1.130900 0.985700
vt 1.000000 -0.000000
vt 0.952381 -0.000000
vt 0.952381 1.000000
vt 1.000000 1.000000
vt 1.000000 -0.000000
vt 1.000000 -0.000000
vt 1.000000 1.000000
vt 1.000000 1.000000
vt 0.952381 -0.000000
vt 1.000000 -0.000000
vt 0.226900 0.883600
vt 0.226900 0.807200
vt 0.996500 0.807200
vt 0.996500 0.883600
vt 0.225800 0.903100
vt 0.997500 0.903100
vt 0.997500 0.998500
vt 0.225800 0.998500
vt 0.226900 0.852500
vt 0.996500 0.852500
vt 0.996400 0.828600
vt 0.996400 0.905000
vt 0.434900 0.905000
vt 0.434900 0.828600
vt 0.997500 0.809100
vt 0.433900 0.809100
vt 0.000000 0.500000
vt 1.000000 0.500000
vt 0.996400 0.859700
vt 0.434900 0.859700
vt 0.140700 0.913400
vt 0.140700 0.989800
vt 0.702100 0.989800
vt 0.702100 0.913400
vt 0.139600 0.904100
vt 0.703100 0.904100
vt 0.703100 0.814500
vt 0.139600 0.814500
vt 0.140700 0.960400
vt 0.702100 0.960400
vt 0.975900 0.698600
vt 0.025500 0.698600
vt 0.025500 0.025000
vt 0.975900 0.025000
vt 1.003900 -0.000000
vt 0.000000 0.000000
vt 1.000200 0.698800
vt 1.000000 0.024800
vt 0.968900 0.656600
vt 0.968900 0.698900
vt 0.032200 0.698900
vt 0.032200 0.656600
vt 0.000000 0.025200
vt 0.000000 0.698100
vt 0.975700 0.024400
vt 0.025300 0.024400
vt 0.025300 0.698100
vt 0.975700 0.698100
vt 1.050800 0.985700
vt 1.050800 0.905700
vt 1.130900 0.905700
vt 1.130900 0.985700
vt 1.000000 1.000000
vt 0.952381 -0.000000
vt 0.952381 -0.000000
vt 0.952381 1.000000
vt 1.000000 -0.000000
vt 0.952381 -0.000000
vt 0.952381 1.000000
vt 1.000000 1.000000
vt 0.952381 1.000000
vt 0.952381 1.000000
vt 1.050800 0.985700
vt 1.050800 0.905700
vt 1.130900 0.905700
vt 1.130900 0.985700
vt 0.952381 -0.000000
vt 0.952381 -0.000000
vt 0.952381 1.000000
vt 0.952381 1.000000
vt 1.000000 -0.000000
vt 1.000000 -0.000000
vt 1.000000 1.000000
vt 1.000000 1.000000
vt 0.952381 -0.000000
vt 1.000000 -0.000000
vt 1.050800 0.985700
vt 1.050800 0.905700
vt 1.130900 0.905700
vt 1.130900 0.985700
vt 1.000000 1.000000
vt 0.952381 1.000000
vt 0.000000 -0.000000
vt 0.047619 -0.000000
vt 0.000000 -0.000000
vt 0.000000 -0.000000
vt 0.047619 1.000000
vt 0.000000 1.000000
vt 0.000000 1.000000
vt 0.000000 1.000000
vt 0.226900 0.883600
vt 0.226900 0.807200
vt 0.996500 0.807200
vt 0.996500 0.883600
vt 0.225800 0.903100
vt 0.997500 0.903100
vt 0.226562 0.000000
vt 0.773438 1.000000
vt 0.226900 0.852500
vt 0.996500 0.852500
vt 0.047619 -0.000000
vt 0.000000 -0.000000
vt 0.000000 1.000000
vt 0.047619 1.000000
vt 0.047619 -0.000000
vt 0.047619 -0.000000
vt 0.000000 -0.000000
vt 0.047619 -0.000000
vt 1.000000 0.500000
vt 0.000000 0.500000
vt 0.773438 1.000000
vt 0.226562 0.000000
vt 0.047619 1.000000
vt 0.047619 1.000000
vt 0.047619 -0.000000
vt 0.047619 -0.000000
vt 0.047619 1.000000
vt 0.047619 1.000000
vt 0.000000 -0.000000
vt 0.000000 -0.000000
vt 0.047619 1.000000
vt 0.000000 1.000000
vt 0.047619 -0.000000
vt 0.000000 -0.000000
vt 0.000000 1.000000
vt 0.047619 1.000000
vt 1.000000 -0.000000
vt 1.000000 1.000000
vt 0.000000 1.000000
vt 0.000000 -0.000000
vt 0.000000 1.000000
vt 0.000000 1.000000
vn 0.000000 -1.000000 0.000000
vn 0.000000 -1.000000 0.000000
vn 0.000000 -1.000000 0.000000
vn 0.000000 -1.000000 0.000000
vn 0.000000 0.000000 -1.000000
vn 0.000000 0.000000 -1.000000
vn 0.000000 0.000000 -1.000000
vn 0.000000 0.000000 -1.000000
vn -1.000000 0.000000 0.000000
vn -1.000000 0.000000 0.000000
vn -1.000000 0.000000 0.000000
vn -1.000000 0.000000 0.000000
vn 0.000000 0.000000 1.000000
vn 0.000000 0.000000 1.000000
vn 0.000000 0.000000 1.000000
vn 0.000000 0.000000 1.000000
vn 1.000000 0.000000 0.000000
vn 1.000000 0.000000 0.000000
vn 1.000000 0.000000 0.000000
vn 1.000000 0.000000 0.000000
vn 0.000000 -1.000000 0.000000
vn 0.000000 -1.000000 0.000000
vn 0.000000 -1.000000 0.000000
vn 0.000000 -1.000000 0.000000
vn -1.000000 0.000000 0.000000
vn -1.000000 0.000000 0.000000
vn -1.000000 0.000000 0.000000
vn -1.000000 0.000000 0.000000
vn 0.000000 0.000000 1.000000
vn 0.000000 0.000000 1.000000
vn 0.000000 0.000000 1.000000
vn 0.000000 0.000000 1.000000
vn 1.000000 0.000000 0.000000
vn 1.000000 0.000000 0.000000
vn 1.000000 0.000000 0.000000
vn 1.000000 0.000000 0.000000
vn 0.000000 0.000000 -1.000000
vn 0.000000 0.000000 -1.000000
vn 0.000000 0.000000 -1.000000
vn 0.000000 0.000000 -1.000000
vn 0.000000 -1.000000 0.000000
vn 0.000000 -1.000000 0.000000
vn 0.000000 -1.000000 0.000000
vn 0.000000 -1.000000 0.000000
vn 0.000000 0.000000 1.000000
vn 0.000000 0.000000 1.000000
vn 0.000000 0.000000 1.000000
vn 0.000000 0.000000 1.000000
vn 1.000000 0.000000 0.000000
vn 1.000000 0.000000 0.000000
vn 1.000000 0.000000 0.000000
vn 1.000000 0.000000 0.000000
vn 0.000000 0.000000 -1.000000
vn 0.000000 0.000000 -1.000000
vn 0.000000 0.000000 -1.000000
vn 0.000000 0.000000 -1.000000
vn -1.000000 0.000000 0.000000
vn -1.000000 0.000000 0.000000
vn -1.000000 0.000000 0.000000
vn -1.000000 0.000000 0.000000
vn 0.000000 -1.000000 0.000000
vn 0.000000 -1.000000 0.000000
vn 0.000000 -1.000000 0.000000
vn 0.000000 -1.000000 0.000000
vn 1.000000 0.000000 0.000000
vn 1.000000 0.000000 0.000000
vn 1.000000 0.000000 0.000000
vn 1.000000 0.000000 0.000000
vn 0.000000 0.000000 -1.000000
vn 0.000000 0.000000 -1.000000
vn 0.000000 0.000000 -1.000000
vn 0.000000 0.000000 -1.000000
vn -1.000000 0.000000 0.000000
vn -1.000000 0.000000 0.000000
vn -1.000000 0.000000 0.000000
vn -1.000000 0.000000 0.000000
vn 0.000000 0.000000 1.000000
vn 0.000000 0.000000 1.000000
vn 0.000000 0.000000 1.000000
vn 0.000000 0.000000 1.000000
vn 1.000000 0.000000 0.000000
vn 1.000000 0.000000 0.000000
vn 1.000000 0.000000 0.000000
vn 1.000000 0.000000 0.000000
vn -1.000000 0.000000 0.000000
vn -1.000000 0.000000 0.000000
vn -1.000000 0.000000 0.000000
vn -1.000000 0.000000 0.000000
vn 0.000000 -1.000000 0.000000
vn 0.000000 -1.000000 0.000000
vn 0.000000 -1.000000 0.000000
vn 0.000000 -1.000000 0.000000
vn 0.000000 0.000000 -1.000000
vn 0.000000 0.000000 -1.000000
vn 0.000000 0.000000 -1.000000
vn 0.000000 0.000000 -1.000000
vn 0.000000 0.000000 1.000000
vn 0.000000 0.000000 1.000000
vn 0.000000 0.000000 1.000000
vn 0.000000 0.000000 1.000000
vn 0.000000 -1.000000 0.000000
vn 0.000000 -1.000000 0.000000
vn 0.000000 -1.000000 0.000000
vn 0.000000 -1.000000 0.000000
vn -1.000000 0.000000 0.000000
vn -1.000000 0.000000 0.000000
vn -1.000000 0.000000 0.000000
vn -1.000000 0.000000 0.000000
vn 1.000000 0.000000 0.000000
vn 1.000000 0.000000 0.000000
vn 1.000000 0.000000 0.000000
vn 1.000000 0.000000 0.000000
vn 0.000000 -1.000000 0.000000
vn 0.000000 -1.000000 0.000000
vn 0.000000 -1.000000 0.000000
vn 0.000000 -1.000000 0.000000
vn 0.000000 0.000000 1.000000
vn 0.000000 0.000000 1.000000
vn 0.000000 0.000000 1.000000
vn 0.000000 0.000000 1.000000
vn 0.000000 0.000000 -1.000000
vn 0.000000 0.000000 -1.000000
vn 0.000000 0.000000 -1.000000
vn 0.000000 0.000000 -1.000000
vn 0.000000 -1.000000 0.000000
vn 0.000000 -1.000000 0.000000
vn 0.000000 -1.000000 0.000000
vn 0.000000 -1.000000 0.000000
vn 0.000000 1.000000 0.000000
vn 0.000000 1.000000 0.000000
vn 0.000000 1.000000 0.000000
vn 0.000000 1.000000 0.000000
vn -1.000000 0.000000 0.000000
vn -1.000000 0.000000 0.000000
vn -1.000000 0.000000 0.000000
vn -1.000000 0.000000 0.000000
vn 0.000000 0.000000 1.000000
vn 0.000000 0.000000 1.000000
vn 0.000000 0.000000 1.000000
vn 0.000000 0.000000 1.000000
vn 1.000000 0.000000 0.000000
vn 1.000000 0.000000 0.000000
vn 1.000000 0.000000 0.000000
vn 1.000000 0.000000 0.000000
vn 0.000000 0.000000 -1.000000
vn 0.000000 0.000000 -1.000000
vn 0.000000 0.000000 -1.000000
vn 0.000000 0.000000 -1.000000
vn 0.000000 -1.000000 0.000000
vn 0.000000 -1.000000 0.000000
vn 0.000000 -1.000000 0.000000
vn 0.000000 -1.000000 0.000000
s off
g deskWorn
usemtl lambert2SG
f 1/1/1 2/2/2 3/3/3 4/4/4
f 1/9/5 4/10/6 5/11/7 6/12/8
f 4/5/9 3/6/10 7/7/11 5/8/12
f 3/68/13 2/69/14 8/75/15 7/76/16
f 2/13/17 1/14/18 6/67/19 8/70/20
f 9/63/21 10/64/22 11/65/23 12/66/24
f 9/71/25 12/72/26 13/73/27 14/74/28
f 12/81/29 11/82/30 15/83/31 13/84/32
f 11/89/33 10/90/34 16/95/35 15/96/36
f 10/85/37 9/86/38 14/87/39 16/88/40
f 17/77/41 18/78/42 19/79/43 20/80/44
f 17/99/45 20/100/46 21/103/47 22/104/48
f 20/97/49 19/98/50 23/101/51 21/102/52
f 19/119/53 18/120/54 24/127/55 23/128/56
f 18/115/57 17/116/58 22/117/59 24/118/60
f 25/91/61 26/92/62 27/93/63 28/94/64
f 25/121/65 28/122/66 29/135/67 30/136/68
f 28/129/69 27/130/70 31/131/71 29/132/72
f 27/137/73 26/138/74 32/139/75 31/140/76
f 26/133/77 25/134/78 30/145/79 32/146/80
f 33/15/81 34/16/82 35/17/83 36/18/84
f 37/19/85 38/20/86 39/21/87 40/22/88
f 33/23/89 36/24/90 38/20/91 37/19/92
f 41/25/93 42/26/94 43/27/95 44/28/96
f 45/31/97 46/32/98 47/123/99 48/124/100
f 41/33/101 44/34/102 46/30/103 45/29/104
f 49/105/105 50/106/106 51/107/107 52/108/108
f 53/111/109 54/112/110 55/125/111 56/126/112
f 49/113/113 52/114/114 54/110/115 53/109/116
f 57/35/117 58/36/118 59/37/119 60/38/120
f 61/39/121 62/40/122 63/41/123 64/42/124
f 57/43/125 60/44/126 62/40/127 61/39/128
f 65/141/129 66/142/130 67/143/131 68/144/132
f 69/49/133 68/48/134 67/47/135 70/50/136
f 71/51/137 65/45/138 68/48/139 69/52/140
f 72/53/141 66/54/142 65/55/143 71/56/144
f 70/57/145 67/47/146 66/46/147 72/58/148
f 69/59/149 70/60/150 72/61/151 71/62/152
