# This file uses centimeters as units for non-parametric coordinates.

mtllib RevistaS.mtl
g default
v -0.590000 -0.020000 0.840000
v -0.590000 0.020000 0.840000
v -0.590000 -0.020000 -0.840000
v -0.590000 0.020000 -0.840000
v 0.708126 -0.020000 0.840000
v 0.708126 0.020000 0.840000
v 0.708126 -0.020000 -0.840000
v 0.708126 0.020000 -0.840000
vt 0.942921 0.942620
vt 0.255231 0.942620
vt 0.255231 0.093408
vt 0.942921 0.093408
vt 0.390286 1.003298
vt 0.390286 0.003471
vt 0.497718 0.003471
vt 0.497718 1.003298
vt 0.000095 0.000095
vt 0.503288 0.000095
vt 0.495686 1.003694
vt 0.000095 1.003694
vt -0.000381 0.343693
vt -0.000381 0.002933
vt 0.374492 0.002933
vt 0.374492 0.343693
vt 0.388680 0.008107
vt 0.388680 0.393216
vt 0.003572 0.393216
vt 0.003572 0.008107
vt 0.412577 0.002545
vt 0.412577 0.373708
vt 0.004259 0.373708
vt 0.004259 0.002546
vn 0.000000 1.000000 0.000000
vn 0.000000 1.000000 0.000000
vn 0.000000 1.000000 0.000000
vn 0.000000 1.000000 0.000000
vn -1.000000 0.000000 0.000000
vn -1.000000 0.000000 0.000000
vn -1.000000 0.000000 0.000000
vn -1.000000 0.000000 0.000000
vn 0.000000 -1.000000 0.000000
vn 0.000000 -1.000000 0.000000
vn 0.000000 -1.000000 0.000000
vn 0.000000 -1.000000 0.000000
vn 0.000000 0.000000 -1.000000
vn 0.000000 0.000000 -1.000000
vn 0.000000 0.000000 -1.000000
vn 0.000000 0.000000 -1.000000
vn 1.000000 0.000000 0.000000
vn 1.000000 0.000000 0.000000
vn 1.000000 0.000000 0.000000
vn 1.000000 0.000000 0.000000
vn 0.000000 0.000000 1.000000
vn 0.000000 0.000000 1.000000
vn 0.000000 0.000000 1.000000
vn 0.000000 0.000000 1.000000
s off
g scavvermagazine_Mesh
usemtl scavvermagazine_None
f 8/1/1 4/2/2 2/3/3 6/4/4
usemtl scavvermagazine_None_magazine_cover_jpg
f 1/5/5 2/6/6 4/7/7 3/8/8
f 3/9/9 7/10/10 5/11/11 1/12/12
usemtl scavvermagazine_None_18_paper_stack_lr_700x700_jpg
f 3/13/13 4/14/14 8/15/15 7/16/16
f 7/17/17 8/18/18 6/19/19 5/20/20
f 5/21/21 6/22/22 2/23/23 1/24/24
